# xmcd
#
# Track frame offsets: 
#        150
#        24147
#        47261
#        70331
#        93145
#
# Disc length: 1592 seconds
#
# Revision: 0
# Processed by: cddbd v1.5.2PL0 Copyright (c) Steve Scherf et al.
# Submitted via: ExactAudioCopy v0.99pb5
#
DISCID=2c063605
DTITLE=Trillion Mafia Inc. - Presents: The Rebel Trillions (EP)
DYEAR=2002
DGENRE=Rap
TTITLE0=Glamourous Life
TTITLE1=h
TTITLE2=h
TTITLE3=h
TTITLE4=h
EXTD=
EXTT0=
EXTT1=
EXTT2=
EXTT3=
EXTT4=
PLAYORDER=
